<svg id="visual" viewBox="0 0 960 540" width="960" height="540" xmlns="http://www.w3.org/2000/svg" xmlns:xlink="http://www.w3.org/1999/xlink" version="1.1"><path d="M0 421L22.8 420.2C45.7 419.3 91.3 417.7 137 425C182.7 432.3 228.3 448.7 274 451.7C319.7 454.7 365.3 444.3 411.2 430.5C457 416.7 503 399.3 548.8 387.3C594.7 375.3 640.3 368.7 686 383.3C731.7 398 777.3 434 823 445.2C868.7 456.3 914.3 442.7 937.2 435.8L960 429L960 541L937.2 541C914.3 541 868.7 541 823 541C777.3 541 731.7 541 686 541C640.3 541 594.7 541 548.8 541C503 541 457 541 411.2 541C365.3 541 319.7 541 274 541C228.3 541 182.7 541 137 541C91.3 541 45.7 541 22.8 541L0 541Z" fill="#FCAF3C" stroke-linecap="round" stroke-linejoin="miter"></path></svg>