<?xml version="1.0" encoding="UTF-8"?>
<svg width="782px" height="614px" viewBox="0 0 782 614" version="1.1" xmlns="http://www.w3.org/2000/svg" xmlns:xlink="http://www.w3.org/1999/xlink">
    <!-- Generator: Sketch 64 (93537) - https://sketch.com -->
    <title>Nikon DF</title>
    <desc>Created with Sketch.</desc>
    <g id="Gadgets-illustrations" stroke="none" stroke-width="1" fill="none" fill-rule="evenodd">
        <g transform="translate(-1847.000000, -3436.000000)" fill="#000000" fill-rule="nonzero" id="12">
            <g transform="translate(1847.000000, 3436.000000)">
                <path d="M499.55744,2.50111043e-11 C502.361614,2.50111043e-11 505.686163,1.50968169 507.536061,3.62427601 L507.536061,3.62427601 L587.904085,95.4919206 C592.502623,100.74845 596.417148,110.258716 596.858937,117.247068 L596.858937,117.247068 L597.845575,132.865 L609.999575,132.865 L610,124.691508 C610,118.676098 614.767448,113.780206 620.70475,113.626296 L620.992937,113.622565 L655.999575,113.622 L656,111.734518 C656,108.951314 658.247214,106.695082 660.990657,106.695082 L674.009343,106.695082 C676.765607,106.695082 679,108.946775 679,111.734518 L678.999575,113.622 L714.007063,113.622565 C719.984185,113.622565 724.843537,118.417785 724.996297,124.401082 L725,124.691508 L724.999575,132.865 L736.99769,132.865574 C741.882422,132.865574 745.855814,136.778043 745.996164,141.663888 L746,141.931337 L746,161.052713 C746,161.145398 745.997931,161.237595 745.993836,161.32926 L751.540279,161.32974 C757.926989,161.32974 763.746881,166.331515 764.741887,172.675778 L764.741887,172.675778 L773.459575,228.266 L776.052872,231.660148 C778.863573,235.339604 781.013069,241.591467 781.124689,246.327348 L781.129214,246.741181 L780.516835,547.764984 C780.495857,558.076959 778.642286,574.384883 776.346775,584.444208 L776.346775,584.444208 L775.924978,586.292595 C773.652517,596.250915 763.818421,604.133661 753.663199,604.133661 L753.663199,604.133661 L608.191286,604.134311 C604.554395,606.434308 600.322469,607.777617 595.937858,607.777617 L595.937858,607.777617 L320.595087,607.777614 C316.351004,607.777614 312.281789,606.515657 308.777946,604.343693 C306.574454,604.446382 302.780926,604.393784 295.333428,604.258374 C290.188832,604.164835 288.02173,604.133661 285.78036,604.133661 L146.991261,604.133661 C141.757624,604.133661 133.187304,605.055813 128.062812,606.170353 L128.062812,606.170353 L115.006652,609.009974 C111.005076,609.880288 104.672409,610.887686 100.80534,611.263504 C100.636376,611.282934 100.317882,611.31821 99.8582518,611.367064 C99.098827,611.447782 98.2151054,611.537532 97.2154738,611.634044 C94.3664887,611.909104 91.1549207,612.183909 87.647746,612.440274 C80.3405395,612.974412 72.7403666,613.357111 65.0860129,613.522822 C61.0487404,613.610226 56.5702026,613.481377 51.721148,613.162565 C45.7210543,612.768076 39.3420446,612.097023 32.8287278,611.227335 C29.039815,610.721422 25.4386741,610.179462 22.1408087,609.637195 C20.9846388,609.447086 19.9480803,609.270351 19.045638,609.111455 C18.728284,609.055577 18.4499309,609.005838 18.2123945,608.962795 C18.067681,608.936572 17.9702441,608.91868 17.9828917,608.920402 C11.2072478,607.784376 5.6918081,601.474301 5.43616601,594.561067 L5.43616601,594.561067 L4.66157544,573.64 L4.59417473,573.562076 C1.00425462,569.350347 1.09169476,563.147548 4.66542995,559.041306 L4.75457544,558.94 L2.76857544,291.783 L0.670167768,252.333295 C0.413609405,247.509548 2.5801102,241.169735 5.73115365,237.427198 L5.98193948,237.137206 L7.41922655,235.519858 C8.32260207,234.503309 9.32337474,232.184768 9.44472577,230.822942 L9.44472577,230.822942 L14.8162115,170.543036 C15.3954109,164.043142 21.0259288,158.861604 27.5044723,158.861604 L27.5044723,158.861604 L50.3035754,158.861 L50.3322158,158.384151 L50.7785754,158.861 L56.3135754,158.861 L56.3625754,158.029 L93.6365754,158.029 L93.6855754,158.861 L99.2205754,158.861 L99.6675754,158.384 L99.6955754,158.861 L116.639575,158.861 L117.830865,153.530445 C118.14371,152.129812 119.403853,151.074702 120.819234,150.989208 L121.004665,150.983607 L122.999575,150.983 L122.999575,148.97 L121.004665,148.970492 C119.406775,148.970492 118.096651,147.709045 118.005109,146.12782 L118,145.95086 L118,136.892226 C118,131.885809 122.025673,127.832787 127.005001,127.832787 L127.005001,127.832787 L195.994999,127.832787 C200.966923,127.832787 205,131.891129 205,136.892226 L205,136.892226 L205,145.95086 C205,147.620792 203.655786,148.970492 201.995335,148.970492 L201.995335,148.970492 L199.999575,148.97 L199.999575,150.983 L201.995335,150.983607 C203.456331,150.983607 204.766067,152.035758 205.110495,153.453438 L205.148462,153.632502 L206.096575,158.861 L322.444575,158.861 L325.145875,117.244449 C325.591825,110.371018 329.45011,101.15884 334.04773,95.911041 L334.342174,95.5815198 L418.265891,3.5267321 C420.142843,1.46792845 423.46275,2.50111043e-11 426.239958,2.50111043e-11 L426.239958,2.50111043e-11 Z M296.013575,571.582 L144.483615,571.582498 C140.467727,571.582498 133.921401,572.000577 129.956826,572.509227 C129.881497,572.519598 129.738741,572.539027 129.528454,572.567296 C129.179259,572.614239 128.769256,572.668642 128.301308,572.729885 C126.965808,572.90467 125.43293,573.099346 123.725573,573.308941 C118.849219,573.907563 113.55019,574.50611 108.011472,575.064791 C99.678219,575.905352 91.5501445,576.57958 83.9045576,577.026767 C77.2633837,577.415207 71.1502661,577.621842 65.6747932,577.621842 C62.8000704,577.621842 59.8144821,577.554267 56.7286219,577.423055 C47.0976462,577.013544 36.8140722,576.00633 26.3897911,574.583924 C21.5253848,573.920169 16.9497846,573.208997 12.7971252,572.497608 C12.7389918,572.48765 12.681108,572.477719 12.6234749,572.467817 L13.4306301,594.261553 C13.5449647,597.353461 16.2686712,600.469585 19.3667772,600.989657 C19.546744,601.023122 19.9040759,601.087873 20.4241202,601.179439 C21.2976384,601.333242 22.3046849,601.504945 23.4305821,601.690076 C26.6529082,602.219923 30.1756164,602.750078 33.8807502,603.244805 C40.229628,604.092537 46.4368691,604.74552 52.2425879,605.12723 C56.8754253,605.431826 61.1282993,605.554182 64.9139871,605.472225 C72.4235994,605.309647 79.8898283,604.933693 87.0683023,604.408965 C90.51185,604.157251 93.6622098,603.887684 96.451636,603.618373 C97.4254485,603.524355 98.283771,603.437184 99.0181502,603.359128 C99.4548022,603.312716 99.7506702,603.279946 99.9662902,603.255761 C103.587411,602.903275 109.61356,601.944638 113.317038,601.139158 L113.317038,601.139158 L126.373198,598.299537 C132.052653,597.064297 141.189366,596.081202 146.991261,596.081202 L146.991261,596.081202 L286.199522,596.081556 C288.365651,596.085253 290.594674,596.118441 295.477912,596.207228 C297.764032,596.248794 299.462193,596.278045 300.840186,596.297718 C299.193164,593.55666 298.099638,590.466012 297.737599,587.188152 L297.737599,587.188152 L296.013575,571.582 Z M294.885342,488.496987 L305.688614,586.298409 C306.501075,593.654336 313.239698,599.725155 320.595087,599.725155 L320.595087,599.725155 L595.937858,599.725158 C603.336252,599.725158 610.312403,593.622973 611.33849,586.253327 L611.33849,586.253327 L624.907072,488.811315 C589.421711,542.433304 528.809932,577.763934 460,577.763934 C391.055705,577.763934 330.34161,542.295191 294.885342,488.496987 Z M770.499265,571.789345 L621.429575,571.789 L619.261067,587.370914 C618.826094,590.495008 617.725856,593.44567 616.12202,596.081597 L753.663199,596.081202 C760.090109,596.081202 766.690185,590.790758 768.128015,584.489939 L768.128015,584.489939 L768.549812,582.641551 C769.255918,579.547276 769.921874,575.787778 770.499265,571.789345 Z M8.60564184,572.026607 L4.60840979,572.176364 L4.66157544,573.64 L4.80130644,573.798322 L4.80130644,573.798322 L5.64373999,574.732569 L8.60564184,572.026607 Z M262.089179,372.426033 L236.599976,372.42623 C223.067027,372.42623 212.099976,383.468505 212.099976,397.092643 L212.099976,397.092643 L212.099976,489.186885 L212.078575,489.186 L212.078758,527.072783 C212.078758,538.403543 220.303941,551.77676 230.378824,556.928513 L230.731014,557.104875 L238.092998,560.713572 L247.509472,564.52 L146.008823,564.523424 C141.107489,564.53059 133.131285,564.960713 128.27554,565.478788 C128.204256,565.48708 128.068919,565.502627 127.869374,565.525247 C127.537985,565.562811 127.148475,565.606347 126.70343,565.655357 C125.433267,565.795231 123.972008,565.951026 122.340324,566.11876 C117.680188,566.597812 112.586753,567.0768 107.225226,567.523869 C97.9044982,568.301074 88.7786711,568.897906 80.215077,569.243089 C74.9074613,569.457029 69.916863,569.569381 65.2972665,569.569381 C53.0739703,569.569381 40.2897633,568.499306 27.7036826,566.716225 C23.3002868,566.092391 19.2349899,565.423859 15.6034153,564.754955 C14.3304404,564.520484 13.2019294,564.302559 12.2298546,564.106718 L11.981978,564.056562 C11.7423255,564.007853 11.5274157,563.963515 11.3378804,563.923842 C11.2668725,563.908978 11.2061814,563.89619 11.1559559,563.885545 L10.9278346,564.096156 C9.82205926,565.112263 9.63797509,566.768902 10.4244039,567.993017 C11.3414681,568.158761 12.3583905,568.338325 13.4682476,568.528453 C17.5782566,569.232536 22.1096398,569.936835 26.9271257,570.594187 C37.2378675,572.001101 47.4028744,572.996702 56.8974442,573.400413 C59.9287646,573.529306 62.8583072,573.595613 65.6747933,573.595613 C71.0659821,573.595613 77.103676,573.391527 83.6725147,573.007318 C91.2574825,572.563676 99.331345,571.893945 107.612625,571.058627 C113.121197,570.502987 118.392079,569.907619 123.24132,569.312326 C124.937922,569.104051 126.460323,568.910705 127.785557,568.737264 C128.248865,568.676628 128.654282,568.622833 128.998937,568.576501 C129.20496,568.548805 129.345478,568.529681 129.432817,568.517738 C133.583372,567.985137 140.298652,567.556269 144.483615,567.556269 L144.483615,567.556269 L295.569575,567.556 L294.245575,555.571 L249.085585,555.571158 C231.617016,555.571157 217.457872,540.959364 217.176436,522.874295 L217.172166,522.325211 L217.172166,521.596462 C217.172166,503.209851 231.989949,488.648939 250.253213,489.09249 L250.253213,489.09249 L262.471936,489.389973 L286.935575,489.389 L284.981932,471.746493 C281.101739,464.385803 277.666447,456.751133 274.712136,448.8788 L248.877239,448.876076 C231.366565,448.876076 217.172166,434.59358 217.172166,416.972059 L217.172166,416.972059 L217.172166,414.598908 C217.172166,396.979133 231.365032,382.694891 248.871015,382.694891 L248.871015,382.694891 L262.043714,382.695625 C262.014619,381.289141 262,379.879076 262,378.465574 C262,376.445231 262.029866,374.43191 262.089179,372.426033 Z M772.492648,549.643078 L749.832805,549.64572 C743.964848,549.64572 734.54819,551.108848 728.957647,552.888784 L728.957647,552.888784 L702.957894,561.166675 C696.97645,563.071068 687.153557,564.5972 680.881478,564.5972 L680.881478,564.5972 L622.431575,564.597 L621.990575,567.763 L771.040776,567.763621 C771.831316,561.437671 772.374127,554.879286 772.492648,549.643078 Z M460,189.232787 C356.170467,189.232787 272,273.955191 272,378.465574 C272,482.975956 356.170467,567.698361 460,567.698361 C563.829533,567.698361 648,482.975956 648,378.465574 C648,273.955191 563.829533,189.232787 460,189.232787 Z M289.442411,249.578577 L246.569978,249.579846 C241.300407,270.994334 222.080073,286.868852 199.176201,286.868852 C176.335186,286.868852 157.15752,271.081347 151.826124,249.756032 C145.443138,252.357932 137.315501,258.477752 133.191793,263.919508 L133.191793,263.919508 L109.448126,295.252289 C105.718835,300.173561 97.9352367,304.053172 91.7925488,304.053172 L91.7925488,304.053172 L33.0693359,304.053173 C28.0427257,304.053173 23.8961923,303.312373 20.5758216,302.063323 C19.3814811,301.614038 18.37119,301.126094 17.5377425,300.629589 C17.2040761,300.430816 16.9332648,300.25212 16.7233657,300.100867 L16.6185754,300.024 L16.5038076,299.965361 C14.3686117,298.846102 12.4165619,297.14119 10.7939704,295.100691 L12.7640625,560.108028 C12.8446901,560.124422 12.9283131,560.141347 13.0149044,560.158793 C13.9656871,560.350345 15.0725432,560.564087 16.3234248,560.794489 C19.9028687,561.453791 23.9143006,562.113466 28.2611796,562.729292 C40.6758839,564.488095 53.2806724,565.543151 65.2972665,565.543151 C69.8600321,565.543151 74.798017,565.431984 80.0550231,565.220084 C88.5564255,564.877408 97.6271385,564.28418 106.894992,563.511384 C112.229742,563.066548 117.29804,562.589924 121.933925,562.113365 C123.555848,561.946634 125.007583,561.791855 126.268403,561.653009 C126.709202,561.604467 127.094511,561.561401 127.42174,561.524308 C127.617366,561.502133 127.75065,561.486821 127.83505,561.477091 C132.84775,560.942177 140.962774,560.504568 146.003012,560.497198 L146.003012,560.497198 L228.295575,560.376 L228.22585,560.340498 C217.09471,554.450203 208.276625,540.115896 208.082041,527.49746 L208.078758,527.072784 L208.078575,488.511 L197.609227,471.684428 C194.557854,466.780165 192.12027,458.393571 191.997272,452.483264 L191.992402,452.021914 L191.992402,394.538757 C191.992402,388.064449 194.56102,378.472168 197.795251,372.871865 L197.795251,372.871865 L198.301732,371.994858 C203.654959,362.725362 216.428976,355.326294 227.071906,355.326294 L227.071906,355.326294 L263.320257,355.325956 C266.053744,331.529622 272.951447,309.010303 283.260964,288.525337 C283.420898,287.500036 283.580656,286.444883 283.744486,285.36686 C285.320047,274.999445 286.949692,264.631613 288.546783,254.952175 C288.849159,253.119574 289.147818,251.327449 289.442411,249.578577 Z M235.299971,560.366637 L228.295575,560.376 L228.601924,560.535835 C228.727568,560.599872 228.853496,560.662828 228.979697,560.724689 L237.217339,562.523479 L237.365873,560.515924 C237.210305,560.504262 237.079385,560.491982 236.776716,560.461688 C236.072755,560.391229 235.744685,560.366637 235.299971,560.366637 Z M6.07117438,557.655623 L5.53406897,558.149174 C5.30205689,558.362372 5.08116865,558.583275 4.87143891,558.811144 L4.75457544,558.94 L4.76816925,560.659248 L8.7680572,560.629114 L6.07117438,557.655623 Z M693.831984,253.483948 L630.507607,253.483057 C630.658183,254.370834 630.809729,255.268861 630.962201,256.176799 C632.591271,265.877575 634.253541,276.268222 635.860644,286.658444 C635.871233,286.726907 635.881806,286.795278 635.892362,286.863556 C650.018986,314.288906 658,345.439096 658,378.465574 C658,411.805327 649.86686,443.233026 635.488703,470.848167 L622.991575,560.57 L680.881478,560.57097 C686.555206,560.57097 695.556587,559.200908 701.19879,557.499149 L701.751566,557.327906 L727.751319,549.050015 C733.732102,547.145833 743.555607,545.619491 749.832805,545.619491 L749.832805,545.619491 L772.520575,545.619 L773.087575,266.977 L743.911428,266.977184 C740.138931,266.977184 734.412224,265.983224 730.690549,264.700864 L730.236069,264.539118 L706.147961,255.677349 C702.890842,254.479088 697.302914,253.483948 693.831984,253.483948 L693.831984,253.483948 Z M460,205.337705 C554.992977,205.337705 632,282.849692 632,378.465574 C632,473.125297 556.525417,550.041392 462.844335,551.570248 L460,551.593443 C365.007023,551.593443 288,474.081456 288,378.465574 C288,282.849692 365.007023,205.337705 460,205.337705 Z M250.132606,494.123813 C234.677288,493.748457 222.172166,506.036798 222.172166,521.596462 L222.172166,521.596462 L222.172166,522.325211 C222.172166,537.924339 234.244633,550.538371 249.085585,550.538371 L249.085585,550.538371 L293.689575,550.538 L287.491575,494.422 L262.411633,494.422028 Z M460,210.370492 C367.768447,210.370492 293,285.629223 293,378.465574 C293,470.373561 366.280555,545.053723 457.23835,546.538136 L460,546.560656 C552.231553,546.560656 627,471.301924 627,378.465574 C627,285.629223 552.231553,210.370492 460,210.370492 Z M250,501.265574 C261.59798,501.265574 271,510.729247 271,522.403279 C271,534.077311 261.59798,543.540984 250,543.540984 C238.40202,543.540984 229,534.077311 229,522.403279 C229,510.729247 238.40202,501.265574 250,501.265574 Z M714.994926,500.259016 C719.414568,500.259016 723,503.87266 723,508.316583 L723,531.457188 C723,535.905811 719.409898,539.514754 714.994926,539.514754 L692.005074,539.514754 C687.585432,539.514754 684,535.901111 684,531.457188 L684,508.316583 C684,503.86796 687.590102,500.259016 692.005074,500.259016 L714.994926,500.259016 Z M250,507.304918 C241.715729,507.304918 235,514.064684 235,522.403279 C235,530.741873 241.715729,537.501639 250,537.501639 C258.284271,537.501639 265,530.741873 265,522.403279 C265,514.064684 258.284271,507.304918 250,507.304918 Z M714.994926,504.285246 L692.005074,504.285246 C689.867484,504.285246 688.109503,505.982407 688.004922,508.115378 L688,508.316583 L688,531.457188 C688,533.676033 689.793133,535.488525 692.005074,535.488525 L714.994926,535.488525 C717.199316,535.488525 719,533.683634 719,531.457188 L719,508.316583 C719,506.097738 717.206867,504.285246 714.994926,504.285246 Z M713.009248,507.304918 C714.660995,507.304918 716,508.65784 716,510.315282 L716,529.458489 C716,531.121067 714.655891,532.468852 713.009248,532.468852 L693.990752,532.468852 C692.339005,532.468852 691,531.11593 691,529.458489 L691,510.315282 C691,508.652704 692.344109,507.304918 693.990752,507.304918 L713.009248,507.304918 Z M713.009248,509.318033 L693.990752,509.318033 C693.485272,509.318033 693.06427,509.704997 693.006706,510.199407 L693,510.315282 L693,529.458489 C693,530.006422 693.445863,530.455738 693.990752,530.455738 L713.009248,530.455738 C713.553611,530.455738 714,530.006951 714,529.458489 L714,510.315282 C714,509.767348 713.554137,509.318033 713.009248,509.318033 Z M460,263.214754 C523.236604,263.214754 574.5,314.814304 574.5,378.465574 C574.5,442.116844 523.236604,493.716393 460,493.716393 C396.763396,493.716393 345.5,442.116844 345.5,378.465574 C345.5,314.814304 396.763396,263.214754 460,263.214754 Z M460,266.234426 C398.42025,266.234426 348.5,316.482023 348.5,378.465574 C348.5,440.449125 398.42025,490.696721 460,490.696721 C521.57975,490.696721 571.5,440.449125 571.5,378.465574 C571.5,316.482023 521.57975,266.234426 460,266.234426 Z M262.898802,359.351888 L227.071906,359.352523 C217.8539,359.352523 206.397114,365.988614 201.759908,374.018267 L201.759908,374.018267 L201.253428,374.895275 C198.374079,379.881074 195.992402,388.775238 195.992402,394.538757 L195.992402,394.538757 L195.992402,452.021914 C195.992402,457.193674 198.266052,465.154478 200.999288,469.54742 L200.999288,469.54742 L208.099575,480.959 L208.099976,397.092643 C208.099976,381.403625 220.603742,368.657203 236.12861,368.403844 L236.599976,368.4 L262.248142,368.400022 C262.398098,365.365616 262.615477,362.349076 262.898802,359.351888 Z M460,277.809836 C515.228475,277.809836 560,322.874945 560,378.465574 C560,433.500296 516.119428,478.218957 461.653683,479.107826 L460,479.121311 C404.771525,479.121311 360,434.056203 360,378.465574 C360,322.874945 404.771525,277.809836 460,277.809836 Z M460,281.836066 C406.980664,281.836066 364,325.09857 364,378.465574 C364,431.298907 406.125349,474.228821 458.412464,475.082136 L460,475.095082 C513.019336,475.095082 556,431.832578 556,378.465574 C556,325.09857 513.019336,281.836066 460,281.836066 Z M461,313.039344 C497.450793,313.039344 527,342.782316 527,379.472131 C527,416.161946 497.450793,445.904918 461,445.904918 C424.549207,445.904918 395,416.161946 395,379.472131 C395,342.782316 424.549207,313.039344 461,313.039344 Z M262.210075,387.728613 L248.871015,387.727678 C234.126323,387.727678 222.172166,399.758798 222.172166,414.598908 L222.172166,414.598908 L222.172166,416.972059 C222.172166,431.813656 234.127598,443.843289 248.877239,443.843289 L248.877239,443.843289 L272.900121,443.845319 C270.979907,438.27712 269.298109,432.596709 267.867024,426.816465 C264.169392,432.835508 257.549984,436.845902 250,436.845902 C238.40202,436.845902 229,427.382229 229,415.708197 C229,404.034165 238.40202,394.570492 250,394.570492 C254.936498,394.570492 259.475166,396.284974 263.060346,399.154636 C262.666929,395.377853 262.384555,391.567395 262.210075,387.728613 Z M461,317.065574 C426.758346,317.065574 399,345.005941 399,379.472131 C399,413.938321 426.758346,441.878689 461,441.878689 C495.241654,441.878689 523,413.938321 523,379.472131 C523,345.005941 495.241654,317.065574 461,317.065574 Z M250,400.609836 C241.715729,400.609836 235,407.369602 235,415.708197 C235,424.046791 241.715729,430.806557 250,430.806557 C258.284271,430.806557 265,424.046791 265,415.708197 C265,407.369602 258.284271,400.609836 250,400.609836 Z M461,362.360656 C470.388841,362.360656 478,370.021724 478,379.472131 C478,388.813913 470.562804,396.407254 461.32304,396.580579 L461,396.583607 C451.611159,396.583607 444,388.922538 444,379.472131 C444,370.021724 451.611159,362.360656 461,362.360656 Z M461,372.42623 C457.134007,372.42623 454,375.580787 454,379.472131 C454,383.363475 457.134007,386.518033 461,386.518033 C464.865993,386.518033 468,383.363475 468,379.472131 C468,375.580787 464.865993,372.42623 461,372.42623 Z M704,268.75082 C721.120827,268.75082 735,282.721003 735,299.954098 C735,317.014862 721.397023,330.877647 704.512642,331.153197 L704,331.157377 C686.879173,331.157377 673,317.187193 673,299.954098 C673,282.721003 686.879173,268.75082 704,268.75082 Z M704,274.790164 C690.192881,274.790164 679,286.056441 679,299.954098 C679,313.851756 690.192881,325.118033 704,325.118033 C717.807119,325.118033 729,313.851756 729,299.954098 C729,286.056441 717.807119,274.790164 704,274.790164 Z M704,280.829508 C714.49341,280.829508 723,289.391879 723,299.954098 C723,310.402746 714.675364,318.89432 704.3378,319.075727 L704,319.078689 C693.50659,319.078689 685,310.516318 685,299.954098 C685,289.391879 693.50659,280.829508 704,280.829508 Z M704,284.855738 C695.715729,284.855738 689,291.615504 689,299.954098 C689,308.292693 695.715729,315.052459 704,315.052459 C712.284271,315.052459 719,308.292693 719,299.954098 C719,291.615504 712.284271,284.855738 704,284.855738 Z M150.399349,235.550203 L24.348154,236.347042 C18.2672655,236.385488 12.7907546,240.113487 10.1606257,245.393037 C9.19050736,247.521904 8.56077258,250.061083 8.65872824,251.902821 L8.65872824,251.902821 L9.28496387,263.666019 C9.47701264,265.105454 9.65590505,267.703104 9.83025024,271.745099 C9.97953166,275.20602 10.0768289,277.770584 10.1291746,279.550887 L10.4457027,285.502172 C11.4996065,290.042666 14.7472131,294.61885 18.5739804,296.507631 L18.5739804,296.507631 L18.7907253,296.61461 L18.9759574,296.770426 C18.9706781,296.765985 18.9994294,296.788329 19.0632381,296.833948 C19.1963837,296.929139 19.366628,297.040562 19.575041,297.164719 C20.2070871,297.541244 21.0044068,297.926328 21.976134,298.291871 C24.8445282,299.370898 28.5166616,300.026944 33.0693359,300.026944 L33.0693359,300.026944 L91.7925487,300.026943 C96.6873301,300.026943 103.294881,296.733514 106.267709,292.81049 L106.267709,292.81049 L130.011376,261.477709 C134.711006,255.27595 143.812843,248.492009 151.001681,245.756736 C150.574443,243.143659 150.352401,240.460378 150.352401,237.724897 C150.352401,236.996186 150.368158,236.271179 150.399349,235.550203 Z M199.176201,194.620286 C175.525269,194.620286 156.352401,213.918878 156.352401,237.724897 C156.352401,261.530916 175.525269,280.829508 199.176201,280.829508 C222.827132,280.829508 242,261.530916 242,237.724897 C242,213.918878 222.827132,194.620286 199.176201,194.620286 Z M336.749575,171.301 L336.750463,171.315929 C336.600205,171.317081 336.314109,171.31999 335.911672,171.325228 C335.238609,171.333989 334.488052,171.346228 333.679551,171.362514 C331.371391,171.40901 329.064054,171.478512 326.916012,171.575367 C322.472158,171.77574 319.168401,172.093175 318.360945,172.388045 C318.275501,172.419248 318.170129,172.462701 318.050449,172.516526 C317.930111,172.570647 317.799397,172.633391 317.661631,172.702968 C317.436118,172.816863 317.205558,172.941928 316.986299,173.067038 C316.857098,173.14076 316.764884,173.195404 316.723662,173.220558 L316.723662,173.220558 L316.604897,173.289346 C314.40819,174.495297 311.871269,177.727328 311.215201,180.166403 C311.190358,180.257136 311.141274,180.436944 311.070117,180.698449 C310.95128,181.135186 310.813358,181.643791 310.657945,182.218994 C310.213655,183.863367 309.718484,185.710944 309.185172,187.719537 C307.661509,193.458059 306.137905,199.33531 304.716451,205.012974 C304.372275,206.387703 304.037703,207.736538 303.713638,209.056478 C301.96671,216.171847 300.571857,222.253712 299.627056,226.972097 C298.598463,232.108942 297.44149,238.433226 296.179799,245.761159 C295.624393,248.986975 295.052153,252.387395 294.465708,255.941638 C293.530665,261.608627 292.584106,267.514332 291.643691,273.518667 C326.563385,216.882328 388.905967,179.167213 460,179.167213 C530.520294,179.167213 592.429819,216.276052 627.506347,272.152012 C626.682088,267.048435 625.85983,262.028825 625.046123,257.18337 C624.447964,253.62146 623.864295,250.213713 623.297796,246.980954 C622.010928,239.637364 620.830879,233.299621 619.781796,228.151975 C618.817698,223.421332 617.39356,217.320875 615.609616,210.182401 C615.279291,208.8606 614.938268,207.509886 614.587466,206.133257 C613.137134,200.441809 611.582569,194.550086 610.027942,188.797308 C609.483792,186.783723 608.978559,184.931541 608.525241,183.283061 C608.366671,182.706425 608.225948,182.196552 608.104697,181.758728 C608.032098,181.496577 607.982018,181.316323 607.95299,181.21204 C607.329823,178.935701 604.783493,176.136461 602.588605,175.313903 L602.588605,175.313903 L602.489238,175.274624 C602.300683,175.196163 601.937689,175.050753 601.440345,174.860965 C600.604906,174.542159 599.713297,174.223087 598.807203,173.926511 C597.973162,173.653518 597.169005,173.413716 596.4139,173.216486 C595.339874,172.935957 594.402278,172.751743 593.658585,172.679178 C592.158738,172.53283 589.313929,172.406058 585.56959,172.303483 C583.470807,172.245988 581.219466,172.199448 578.967754,172.162992 C578.179364,172.150228 577.447374,172.139639 576.790691,172.131109 C576.39731,172.125999 576.116933,172.122717 575.968444,172.121144 L575.968444,172.121144 L575.968575,172.065 L336.749575,171.301 Z M203.040141,199.35082 C205.743205,199.35082 208.06383,201.480831 208.290277,204.18049 L208.290277,204.18049 L208.694,208.984 L208.970875,209.06935 C221.923937,213.122023 231.00595,224.731395 231.193753,238.130384 L231.193753,238.130384 L231.196721,238.554098 C231.196721,255.693424 216.764069,269.554098 199,269.554098 C181.235931,269.554098 166.803279,255.693424 166.803279,238.554098 C166.803279,224.976345 175.940109,213.164196 189.029918,209.069101 L189.029918,209.069101 L189.306,208.984 L189.709697,204.180799 C189.929047,201.565743 192.136139,199.470144 194.736082,199.35574 L194.736082,199.35574 L194.959859,199.35082 Z M203.040141,203.35082 L194.959859,203.35082 C194.34291,203.35082 193.747456,203.898107 193.695694,204.515205 L193.695694,204.515205 L193.057665,212.118886 L191.680714,212.472274 C179.447313,215.611922 170.803279,226.273164 170.803279,238.554098 C170.803279,253.447288 183.409692,265.554098 199,265.554098 C214.590308,265.554098 227.196721,253.447288 227.196721,238.554098 C227.196721,226.273432 218.553062,215.612363 206.320026,212.472464 L206.320026,212.472464 L204.943305,212.119096 L204.304301,204.515144 C204.251787,203.889086 203.665352,203.35082 203.040141,203.35082 L203.040141,203.35082 Z M764.027483,235.681517 C762.06828,235.46935 760.195079,235.439199 757.500347,235.503186 C757.547503,235.502066 756.80096,235.520251 756.617942,235.524224 C756.304127,235.531037 756.069441,235.534426 755.86377,235.534426 L627.329857,235.533528 C627.926589,238.72915 628.553102,242.202761 629.206583,245.931893 C629.408683,247.085186 629.612925,248.260456 629.819192,249.456784 L693.831984,249.457718 C697.771204,249.457718 703.823912,250.53563 707.521092,251.895785 L707.521092,251.895785 L731.6092,260.757554 C734.86489,261.955289 740.450263,262.950955 743.911428,262.950955 L743.911428,262.950955 L773.095575,262.95 L773.129231,246.724693 C773.132961,244.890943 772.532518,242.390537 771.650442,240.181253 C771.173888,239.124336 770.61287,238.260203 769.981182,237.631463 C769.03731,236.691995 766.945319,235.997495 764.027483,235.681517 Z M291.892541,235.53295 L247.952358,235.534212 C247.984009,236.260459 248,236.990798 248,237.724897 C248,240.389347 247.78934,243.004272 247.38387,245.553718 L290.126575,245.553 L290.267923,244.729885 C290.830473,241.462579 291.372635,238.391873 291.892541,235.53295 Z M315.803722,166.914262 L27.5044723,166.914063 C25.1671473,166.914063 22.9934502,168.914429 22.7842247,171.2624 L22.7842247,171.2624 L17.4158488,231.510469 C19.594582,230.745743 21.9157698,230.322957 24.3104666,230.307817 L24.3104666,230.307817 L151.032182,229.505952 C154.917745,206.277127 174.993853,188.580942 199.176201,188.580942 C223.354726,188.580942 243.42831,206.271534 247.318376,229.494938 L293.018285,229.493906 C293.266916,228.196401 293.509349,226.957371 293.745333,225.778854 C294.710327,220.959625 296.122905,214.800476 297.888864,207.607593 C298.215183,206.278471 298.551974,204.920689 298.898345,203.537194 C300.327479,197.828853 301.858076,191.924626 303.388614,186.160213 C303.924273,184.142779 304.421717,182.28672 304.868236,180.6341 C305.024606,180.055355 305.163472,179.543268 305.283243,179.103099 C305.355252,178.83846 305.404794,178.656975 305.427275,178.574982 C306.507819,174.557629 310.099981,169.981225 313.731984,167.987322 L313.654575,168.031 L313.760873,167.967236 C314.02232,167.811882 314.358472,167.622133 314.738083,167.4244 L314.970815,167.305013 C315.185051,167.196814 315.39585,167.09563 315.602796,167.002558 C315.67033,166.972185 315.737292,166.942746 315.803722,166.914262 Z M751.540279,169.382199 L604.00526,169.382683 C604.34545,169.515284 604.608878,169.621568 604.781494,169.693396 L604.761575,169.685 L604.967759,169.765963 C608.773354,171.319866 612.445862,175.356909 613.64821,179.298901 L613.733718,179.594331 C613.760314,179.689776 613.810866,179.87173 613.884345,180.137055 C614.006559,180.578356 614.148255,181.091756 614.307812,181.67198 C614.763427,183.328816 615.271005,185.189592 615.817576,187.212135 C617.379293,192.991151 618.941072,198.910213 620.399327,204.632754 C620.752391,206.01826 621.095702,207.378035 621.428351,208.709134 C623.231966,215.926326 624.674423,222.105249 625.659405,226.938366 C625.827107,227.76125 625.998002,228.613566 626.172002,229.494623 L755.86377,229.495082 C756.017408,229.495082 756.214259,229.492239 756.488562,229.486284 C756.662306,229.482512 757.398194,229.464587 757.358845,229.465521 C760.297044,229.395754 762.384011,229.429345 764.669299,229.676824 C764.984921,229.711004 765.295224,229.748785 765.600138,229.790363 L756.839745,173.931421 C756.458809,171.502531 753.991665,169.382199 751.540279,169.382199 L751.540279,169.382199 Z M772.83932,227.453326 L773.619388,229.279676 L773.459575,228.266 L772.83932,227.453326 Z M685.994354,190.239344 C688.758896,190.239344 691,192.491475 691,195.272131 L691,217.416393 C691,220.195925 688.761641,222.44918 685.994354,222.44918 L660.005646,222.44918 C657.241104,222.44918 655,220.197049 655,217.416393 L655,195.272131 C655,192.4926 657.238359,190.239344 660.005646,190.239344 L685.994354,190.239344 Z M685.994354,194.265574 L660.005646,194.265574 C659.484967,194.265574 659.060193,194.657899 659.00587,195.162407 L659,195.272131 L659,217.416393 C659,217.971879 659.448709,218.422951 660.005646,218.422951 L685.994354,218.422951 C686.552225,218.422951 687,217.972577 687,217.416393 L687,195.272131 C687,194.716646 686.551291,194.265574 685.994354,194.265574 Z M673,196.781967 C678.246705,196.781967 682.5,201.063153 682.5,206.344262 C682.5,211.625372 678.246705,215.906557 673,215.906557 C667.753295,215.906557 663.5,211.625372 663.5,206.344262 C663.5,201.063153 667.753295,196.781967 673,196.781967 Z M673,199.801639 C669.410149,199.801639 666.5,202.730871 666.5,206.344262 C666.5,209.957653 669.410149,212.886885 673,212.886885 C676.589851,212.886885 679.5,209.957653 679.5,206.344262 C679.5,202.730871 676.589851,199.801639 673,199.801639 Z M584.5,190.742623 C589.470563,190.742623 593.5,194.798483 593.5,199.801639 C593.5,204.804796 589.470563,208.860656 584.5,208.860656 C579.529437,208.860656 575.5,204.804796 575.5,199.801639 C575.5,194.798483 579.529437,190.742623 584.5,190.742623 Z M336.5,190.742623 C341.470563,190.742623 345.5,194.798483 345.5,199.801639 C345.5,204.804796 341.470563,208.860656 336.5,208.860656 C331.529437,208.860656 327.5,204.804796 327.5,199.801639 C327.5,194.798483 331.529437,190.742623 336.5,190.742623 Z M336.5,193.762295 C333.186292,193.762295 330.5,196.466202 330.5,199.801639 C330.5,203.137077 333.186292,205.840984 336.5,205.840984 C339.813708,205.840984 342.5,203.137077 342.5,199.801639 C342.5,196.466202 339.813708,193.762295 336.5,193.762295 Z M584.5,193.762295 C581.186292,193.762295 578.5,196.466202 578.5,199.801639 C578.5,203.137077 581.186292,205.840984 584.5,205.840984 C587.813708,205.840984 590.5,203.137077 590.5,199.801639 C590.5,196.466202 587.813708,193.762295 584.5,193.762295 Z M582.743483,197.299752 L582.816051,197.360779 L584.421573,198.976305 L586.027095,197.360779 C586.208983,197.177698 586.491325,197.157356 586.695537,197.299752 L586.768105,197.360779 C586.949993,197.54386 586.970203,197.828054 586.828734,198.033604 L586.768105,198.106648 L585.162573,199.722305 L586.768105,201.338748 C586.949993,201.521829 586.970203,201.806022 586.828734,202.011573 L586.768105,202.084617 C586.586216,202.267698 586.303874,202.28804 586.099663,202.145644 L586.027095,202.084617 L584.421573,200.468305 L582.816051,202.084617 C582.634163,202.267698 582.351821,202.28804 582.147609,202.145644 L582.075041,202.084617 C581.893153,201.901536 581.872943,201.617342 582.014412,201.411792 L582.075041,201.338748 L583.679573,199.722305 L582.075041,198.106648 C581.893153,197.923567 581.872943,197.639373 582.014412,197.433823 L582.075041,197.360779 C582.256929,197.177698 582.539272,197.157356 582.743483,197.299752 Z M334.743483,197.299752 L334.816051,197.360779 L336.421573,198.976305 L338.027095,197.360779 C338.208983,197.177698 338.491325,197.157356 338.695537,197.299752 L338.768105,197.360779 C338.949993,197.54386 338.970203,197.828054 338.828734,198.033604 L338.768105,198.106648 L337.162573,199.722305 L338.768105,201.338748 C338.949993,201.521829 338.970203,201.806022 338.828734,202.011573 L338.768105,202.084617 C338.586216,202.267698 338.303874,202.28804 338.099663,202.145644 L338.027095,202.084617 L336.421573,200.468305 L334.816051,202.084617 C334.634163,202.267698 334.351821,202.28804 334.147609,202.145644 L334.075041,202.084617 C333.893153,201.901536 333.872943,201.617342 334.014412,201.411792 L334.075041,201.338748 L335.679573,199.722305 L334.075041,198.106648 C333.893153,197.923567 333.872943,197.639373 334.014412,197.433823 L334.075041,197.360779 C334.256929,197.177698 334.539272,197.157356 334.743483,197.299752 Z M313.731984,167.987322 L313.654575,168.031 L313.613219,168.05611 L313.613219,168.05611 L315.165575,170.635 L313.731984,167.987322 Z M499.55744,8.05245902 L426.239958,8.05245902 C425.702975,8.05245902 424.521533,8.57484511 424.160237,8.97114506 L424.160237,8.97114506 L340.23652,101.025933 C336.743314,104.857582 333.465498,112.580758 333.12887,117.769203 L333.12887,117.769203 L330.680575,155.49 L330.996852,155.475574 L331.266206,161.3893 C331.362315,163.49939 333.177921,165.250628 335.281988,165.257347 L335.281988,165.257347 L586.10787,166.058292 C588.223244,166.065047 590.106637,164.297142 590.247446,162.172629 L590.247446,162.172629 L590.643888,156.191112 L590.999575,156.215 L590.999575,151.379 L588.875084,117.758431 C588.553657,112.674001 585.479293,105.102424 582.144485,101.099918 L581.900046,100.813509 L501.532022,8.94586409 C501.202056,8.56868352 500.065251,8.05245902 499.55744,8.05245902 L499.55744,8.05245902 Z M325.143575,158.861 L322.444575,158.861 L322.201539,162.625457 L325.187575,159.809 L325.143575,158.861 Z M602.728575,138.904 L598.689575,138.904 L598.690486,144.977933 C598.690486,145.131479 598.673543,145.281027 598.641396,145.424775 L599.627575,161.049 L739.999575,161.049 L740,141.931337 C740,140.316568 738.751443,139.00189 737.174241,138.910044 L736.99769,138.904918 L735.999575,138.904 L736,144.977933 C736,146.043928 735.183351,146.917262 734.132408,146.994454 L733.980742,147 C732.865537,147 731.961485,146.09805 731.961485,144.977933 L731.960575,138.904 L727.922575,138.904 L727.92297,144.977933 C727.92297,146.043928 727.10632,146.917262 726.055378,146.994454 L725.903712,147 C724.788507,147 723.884455,146.09805 723.884455,144.977933 L723.883575,138.904 L719.845575,138.904 L719.84594,144.977933 C719.84594,146.043928 719.02929,146.917262 717.978348,146.994454 L717.826682,147 C716.711477,147 715.807424,146.09805 715.807424,144.977933 L715.806575,138.904 L711.768575,138.904 L711.768909,144.977933 C711.768909,146.043928 710.95226,146.917262 709.901317,146.994454 L709.749652,147 C708.634447,147 707.730394,146.09805 707.730394,144.977933 L707.729575,138.904 L703.691575,138.904 L703.691879,144.977933 C703.691879,146.043928 702.87523,146.917262 701.824287,146.994454 L701.672621,147 C700.557416,147 699.653364,146.09805 699.653364,144.977933 L699.652575,138.904 L695.614575,138.904 L695.614849,144.977933 C695.614849,146.043928 694.798199,146.917262 693.747257,146.994454 L693.595591,147 C692.480386,147 691.576334,146.09805 691.576334,144.977933 L691.575575,138.904 L687.537575,138.904 L687.537819,144.977933 C687.537819,146.043928 686.721169,146.917262 685.670227,146.994454 L685.518561,147 C684.403356,147 683.499303,146.09805 683.499303,144.977933 L683.498575,138.904 L679.460575,138.904 L679.460788,144.977933 C679.460788,146.043928 678.644139,146.917262 677.593196,146.994454 L677.441531,147 C676.326326,147 675.422273,146.09805 675.422273,144.977933 L675.421575,138.904 L671.383575,138.904 L671.383758,144.977933 C671.383758,146.043928 670.567109,146.917262 669.516166,146.994454 L669.364501,147 C668.249295,147 667.345243,146.09805 667.345243,144.977933 L667.344575,138.904 L663.306575,138.904 L663.306728,144.977933 C663.306728,146.043928 662.490078,146.917262 661.439136,146.994454 L661.28747,147 C660.172265,147 659.268213,146.09805 659.268213,144.977933 L659.267575,138.904 L655.229575,138.904 L655.229698,144.977933 C655.229698,146.043928 654.413048,146.917262 653.362106,146.994454 L653.21044,147 C652.095235,147 651.191182,146.09805 651.191182,144.977933 L651.190575,138.904 L647.152575,138.904 L647.152667,144.977933 C647.152667,146.043928 646.336018,146.917262 645.285075,146.994454 L645.13341,147 C644.018205,147 643.114152,146.09805 643.114152,144.977933 L643.113575,138.904 L639.075575,138.904 L639.075637,144.977933 C639.075637,146.043928 638.258988,146.917262 637.208045,146.994454 L637.05638,147 C635.941174,147 635.037122,146.09805 635.037122,144.977933 L635.036575,138.904 L630.998575,138.904 L630.998607,144.977933 C630.998607,146.043928 630.181957,146.917262 629.131015,146.994454 L628.979349,147 C627.864144,147 626.960092,146.09805 626.960092,144.977933 L626.959575,138.904 L622.921575,138.904 L622.921577,144.977933 C622.921577,146.043928 622.104927,146.917262 621.053985,146.994454 L620.902319,147 C619.787114,147 618.883062,146.09805 618.883062,144.977933 L618.882575,138.904 L614.843575,138.904 L614.844546,144.977933 C614.844546,146.043928 614.027897,146.917262 612.976954,146.994454 L612.825289,147 C611.710084,147 610.806031,146.09805 610.806031,144.977933 L610.805575,138.904 L606.766575,138.904 L606.767516,144.977933 C606.767516,146.043928 605.950867,146.917262 604.899924,146.994454 L604.748259,147 C603.633053,147 602.729001,146.09805 602.729001,144.977933 L602.728575,138.904 Z M201.331575,155.009 L121.599575,155.009 L120.739575,158.861 L202.030575,158.861 L201.331575,155.009 Z M90.5014797,146.957377 C95.1950829,146.957377 99.2231749,150.776228 99.4992676,155.500582 L99.6465754,158.029 L93.6365754,158.029 L93.5096213,155.855224 C93.4202067,154.325209 92.0203814,152.996721 90.5014797,152.996721 L59.4985203,152.996721 C58.0393687,152.996721 56.683683,154.232443 56.5056353,155.686534 L56.4903787,155.855224 L56.3625754,158.029 L50.3529412,158.029508 L50.5007324,155.500582 C50.7764703,150.7823 54.806601,146.957377 59.4985203,146.957377 L90.5014797,146.957377 Z M541.491974,77.6093707 C544.804378,77.6093707 549.346413,79.5710708 551.629247,81.9828714 L575.518644,107.221884 C577.804901,109.637302 579.780435,114.296981 579.930845,117.623438 L581.262318,147.070214 C581.488333,152.06874 577.647407,156.120846 572.679493,156.120846 L348.620974,156.120843 C343.654796,156.120843 339.841774,152.074486 340.104645,147.077459 L341.652468,117.654267 C341.827462,114.327731 343.807723,109.654838 346.07447,107.21818 L369.51348,82.0222314 C371.780691,79.5850757 376.314832,77.6093707 379.616266,77.6093707 L541.491974,77.6093707 Z M541.491974,82.6421576 L379.616266,82.6421576 C377.694189,82.6421576 374.482538,84.0439442 373.163225,85.4621496 L349.724215,110.658098 C348.318272,112.169428 346.873744,115.508947 346.664564,117.667249 L346.645473,117.920382 L345.097651,147.343575 C344.986308,149.460128 346.519669,151.088056 348.620974,151.088057 L572.679493,151.088059 C574.794812,151.088059 576.363984,149.433127 576.267488,147.299033 L574.936015,117.852258 C574.840394,115.737506 573.35265,112.22965 571.898591,110.693445 L548.009194,85.4544322 C546.668538,84.0380364 543.434144,82.6421576 541.491974,82.6421576 Z M195.999575,148.97 L126.999575,148.97 L126.999575,150.983 L195.999575,150.983 L195.999575,148.97 Z M201.995335,144.944262 L200.999575,144.944 L201,145.95086 C201,145.394944 201.44885,144.944262 201.995335,144.944262 Z M121.999575,144.944 L121.004665,144.944262 C121.556856,144.944262 122,145.390374 122,145.95086 L121.999575,144.944 Z M195.994999,131.859016 L127.005001,131.859016 C124.235022,131.859016 122,134.109222 122,136.892226 L122,136.892226 L121.999575,144.944 L123.999575,144.944 L124,141.135885 C124,140.304262 124.632734,139.621351 125.451771,139.548039 L125.59815,139.541523 C126.480783,139.541523 127.196299,140.260038 127.196299,141.135885 L127.195575,144.944 L131.990575,144.944 L131.990748,141.135885 C131.990748,140.304262 132.623482,139.621351 133.442519,139.548039 L133.588898,139.541523 C134.471531,139.541523 135.187047,140.260038 135.187047,141.135885 L135.186575,144.944 L139.980575,144.944 L139.981496,141.135885 C139.981496,140.304262 140.61423,139.621351 141.433267,139.548039 L141.579646,139.541523 C142.462279,139.541523 143.177795,140.260038 143.177795,141.135885 L143.177575,144.944 L147.971575,144.944 L147.972244,141.135885 C147.972244,140.304262 148.604978,139.621351 149.424015,139.548039 L149.570394,139.541523 C150.453028,139.541523 151.168544,140.260038 151.168544,141.135885 L151.167575,144.944 L155.962575,144.944 L155.962992,141.135885 C155.962992,140.304262 156.595726,139.621351 157.414763,139.548039 L157.561142,139.541523 C158.443776,139.541523 159.159292,140.260038 159.159292,141.135885 L159.158575,144.944 L163.953575,144.944 L163.953741,141.135885 C163.953741,140.304262 164.586474,139.621351 165.405511,139.548039 L165.55189,139.541523 C166.434524,139.541523 167.15004,140.260038 167.15004,141.135885 L167.149575,144.944 L171.943575,144.944 L171.944489,141.135885 C171.944489,140.304262 172.577222,139.621351 173.396259,139.548039 L173.542638,139.541523 C174.425272,139.541523 175.140788,140.260038 175.140788,141.135885 L175.140575,144.944 L179.934575,144.944 L179.935237,141.135885 C179.935237,140.304262 180.56797,139.621351 181.387007,139.548039 L181.533386,139.541523 C182.41602,139.541523 183.131536,140.260038 183.131536,141.135885 L183.130575,144.944 L187.925575,144.944 L187.925985,141.135885 C187.925985,140.304262 188.558719,139.621351 189.377755,139.548039 L189.524134,139.541523 C190.406768,139.541523 191.122284,140.260038 191.122284,141.135885 L191.121575,144.944 L195.916575,144.944 L195.916733,141.135885 C195.916733,140.304262 196.549467,139.621351 197.368504,139.548039 L197.514883,139.541523 C198.397516,139.541523 199.113032,140.260038 199.113032,141.135885 L199.112575,144.944 L200.999575,144.944 L201,136.892226 C201,134.188101 198.874489,131.978114 196.21202,131.863672 L195.994999,131.859016 Z M452.506569,87.7757008 C453.611139,87.7757008 454.506569,88.677003 454.506569,89.7888156 C454.506569,90.9006282 453.611139,91.8019303 452.506569,91.8019303 L452.506569,91.8019303 L383.95642,91.8019303 C382.281528,91.8019303 379.73598,92.8716781 378.560931,94.067527 L378.560931,94.067527 L358.695101,114.285008 C357.476809,115.524865 356.306114,118.141107 356.191631,119.885421 L356.191631,119.885421 L355.078551,136.844775 C355.005739,137.95417 354.053231,138.794099 352.951064,138.720809 C351.848897,138.64752 351.01444,137.688765 351.087252,136.579371 L351.087252,136.579371 L352.200331,119.620016 C352.378262,116.908986 353.956536,113.381897 355.851146,111.45375 L355.851146,111.45375 L375.716976,91.2362689 C377.643342,89.2758029 381.212952,87.7757008 383.95642,87.7757008 L383.95642,87.7757008 Z M714.007063,119.661909 L620.992937,119.661909 C618.236661,119.661909 616,121.914034 616,124.691508 L616,124.691508 L616.00047,132.865574 L719,132.857357 L719,124.691508 C719,121.909296 716.767021,119.661909 714.007063,119.661909 L714.007063,119.661909 Z M674.009343,110.721311 L660.990657,110.721311 C660.491586,110.721311 660.065172,111.115198 660.006802,111.616946 L660,111.734518 L659.999575,113.622 L674.999575,113.622 L675,111.734518 C675,111.169657 674.555718,110.721311 674.009343,110.721311 Z" id="Nikon-DF"></path>
            </g>
        </g>
    </g>
</svg>