<?xml version="1.0" encoding="UTF-8" standalone="no"?>
<svg id="svg2" xmlns:rdf="http://www.w3.org/1999/02/22-rdf-syntax-ns#" xmlns="http://www.w3.org/2000/svg" height="101.56pt" width="1600pt" version="1.1" xmlns:cc="http://creativecommons.org/ns#" xmlns:xlink="http://www.w3.org/1999/xlink" viewBox="0 0 1600 101.5575" xmlns:dc="http://purl.org/dc/elements/1.1/">
<g id="g4204" transform="scale(.41870)">
<g id="g4187" transform="translate(-1.0203 -2.1544)">
<path id="path4" d="m557.97 2.7129c-18.575 41.763-50.662 77.162-72.762 117.45-4.1125 9.3125-4.3625 19.812-4 29.812 8.325 1.1125 12.424-6.4113 14.324-13.236 10.95-37.5 32.663-72.201 62.15-97.801 10.188-9.9125 27.037-6.3875 34.824 4.875 23.038 28.725 38.252 63.087 62.977 90.637 8.025 6.5625 4.9617 24.339 19.199 21.664 2.775-8.85 10.587-18.563 2.5996-27.15-21.938-23.212-36.863-51.538-58.963-74.801-14.7-20.812-32.112-52.374-60.35-51.449zm15.615 44.646c-0.83877-0.0013-1.7531 0.24219-2.7656 0.81641-34.288 24.938-55.162 66.012-65.699 106.47 9.6125 13.8 18.249 28.275 25.512 43.463 6.0375 16.85 23.601 24.986 35.676 36.986 9.625 11.088 16.076-8.4504 21.426-13.65 14.575-24.488 36.186-43.025 57.086-61.812 9.775-8.1-3.2238-17.687-7.2988-24.699-21.212-25.012-35.026-55.201-55.389-80.801-2.6914-2.1734-4.9122-6.7716-8.5469-6.7773zm-0.4707 47.926c14.27 0.44178-2.8633 19 9.3066 21.289 4.1375 9.75-7.0012 17.463-9.8262 26.088 7.4875-5.9625 19.312-18.524 28.912-9.0742 7.075 20.825-3.1859 47.399-24.773 55.574-6.1 7.5125-18.551 7.7129-18.301-3.6621-6.2625 1.0375-14.675 3.7379-18.062-3.5996-4.625-11.212 5.5496-21.362 8.6621-31.562-3.6625 6.8375-21.936 13.561-19.924 0.23633 14.138-18.238 27.811-37.998 42.523-55.273 0.52773-0.02461 1.0221-0.02988 1.4824-0.01563zm13.656 54.914c-7.75 8.6125-15.714 17.439-21.451 27.539 11.838-2.75 28.214-16.589 21.451-27.539zm-101.28 13.383c-4.4911-0.0408-9.2742 0.79024-13.223 0.94336 4.275 1.4375 12.5-2.4496 13.025 3.9004 9.4625 34.45 29.675 64.649 50.75 93.012 10.5 14.262 25.162 26.75 42.688 30.9 15.712-3.35 19.374-21.664 23.986-34.576 16.762-32.038 41.951-58.662 61.113-89.137-36.625 13.775-55.939 55.037-81.764 82.35-17.438 9.1625-31.199-11.25-43.674-20.6-20.875-13.775-25.013-40.05-39.426-59.025-2.4117-6.2227-7.7023-7.7151-13.477-7.7676z" transform="scale(.8)" fill="#fb6665"/>
<path id="path6" d="m572.35 33.127c-5.2835-0.0263-10.521 1.7836-14.66 5.8105-29.488 25.6-51.2 60.301-62.15 97.801-1.9 6.825-5.9992 14.349-14.324 13.236-6.275 0.5875-12.563 1.275-18.838 1.5-9.8625 0.9-9.6883-12.925-15.988-17.9-14.05-13.2-34.125-19.9-53.35-17.287-5.6375 0.925-11.611 3.2387-15.486 7.5137-6.9 10.788-1.6 29.162-20.625 20.312-4.85-0.1125-9.7016-0.12656-14.539-0.0391-13.45 2.3125-14.537-14.5-24.012-19.912-15.138-12.725-43.925-19.012-55.713 1.0879-8.3 8.225 8.175 28.237-10.875 22.449-3.275 0.2625-6.5504 0.50078-9.8379 0.23828-5.1-1.2375-13.111 1.9758-15.799-3.9492-4.75-13.512-20.889-13.95-31.389-21.25-29.838-11.862-44.311-43.576-71.773-58.826-5.6875-1.5875-8.8754 3.5371-12.463 6.5996-26.492 22.928-57.58 41.459-79.03 69.659-8.7375 10.112-8.775 26.586 1.375 35.861 29.212 29.475 65.537 51.913 89.037 86.963 4.4 8.75 15.738 5.8625 21.938 0.8125 34.738-26.8 66.425-61.862 84.188-101.2 7.6625-0.725 15.389-0.32539 23.076-0.40039 14.412-4.525 14.175 7.8125 16.037 17.812 18.05 20.225 52.325 4.1625 64-16.188 2.5125-8.275 12.512-6.0254 18.875-6.5254 12.088-2.675 5.1746 12.738 6.9746 19.275 10.088 38.35 76.475 52.45 92.838 11.963 6.4125-7.6625 0.60039-27.089 15.15-23.826 2.425-0.0375 4.8621-0.0242 7.2871-0.19922 9.025-0.35 22.412-4.2383 26.699 6.8242 14.412 18.975 18.551 45.25 39.426 59.025 12.475 9.35 26.236 29.762 43.674 20.6 25.825-27.312 45.139-68.575 81.764-82.35 15.588 2.075 31.125 4.9758 46.713 7.3008 4.6 0.2 9.2109 0.49922 13.836 0.88672 1.2125 16.95 0.775 34.3 5.1875 50.85 1.7 6.6875 10.888 7.5883 15.926 4.4258 27.9-20.862 57.763-39.063 88.15-56.088 5.8625-3.9 13.237-2.2129 19.85-2.5254 5.725 0.25 11.2 2.2383 16.912 2.6758 19.438-1.05 1.0621 30.025 10.412 39.475 7.0125 2.2875 14.463-1.0008 20.65-4.1758 22.838-11.425 45.689-22.824 68.451-34.361 0.8125-9.825-8.175-16.338-13.875-23.125-20.188-15.638-37.025-36.262-60.338-47.475-27.362 1.2625-5.2504 41.887-15.838 55.762-6.7625-0.075-13.499-1.2746-20.199-1.8496-4.5375-0.525-9.1387-0.61289-13.639-1.2129-30.7-22.962-64.563-45.025-100.15-61.375-6.9625-3.6125-19.137-5.0125-21.6 4.5625-2.325 19.688 7.6004 38.587 5.2129 58.387-9 1.1-18.113 0.4875-27.113-0.1875-9.2875-1.1625-18.462-2.9984-27.699-4.4609-14.238 2.675-11.174-15.102-19.199-21.664-24.725-27.55-39.939-61.912-62.977-90.637-4.6238-6.6871-12.442-10.647-20.164-10.686zm1.2422 14.232c3.6347 0.0058 5.8555 4.6039 8.5469 6.7773 20.362 25.6 34.176 55.788 55.389 80.801 4.075 7.0125 17.074 16.599 7.2988 24.699-20.9 18.788-42.511 37.325-57.086 61.812-5.35 5.2-11.801 24.738-21.426 13.65-12.075-12-29.638-20.136-35.676-36.986-7.2625-15.188-15.899-29.663-25.512-43.463 10.538-40.462 31.412-81.537 65.699-106.47 1.0125-0.57422 1.9268-0.81773 2.7656-0.81641zm-451.98 34.303c26.238 20.563 47.975 51.351 82.475 61.676 11.112 1.2 10.912 14.387 6.2246 21.975-17.012 33.85-44.438 61.575-73.238 85.725-6.4375 5.225-9.675-6.5617-13.562-9.5742-21.5-30.762-55.725-48.438-80.287-76.025-8.8375-7.275-0.44922-17.188 5.1758-23.275 22.338-22.488 47.338-42.338 73.213-60.5zm451.51 13.623c-0.46034-0.01425-0.95469-0.009-1.4824 0.01563-14.712 17.275-28.386 37.036-42.523 55.273-2.0125 13.325 16.261 6.6012 19.924-0.23634-3.1125 10.2-13.287 20.35-8.6621 31.562 3.3875 7.3375 11.8 4.6371 18.062 3.5996-0.25 11.375 12.201 11.175 18.301 3.6621 21.588-8.175 31.848-34.749 24.773-55.574-9.6-9.45-21.425 3.1117-28.912 9.0742 2.825-8.625 13.964-16.338 9.8262-26.088-12.17-2.2887 4.9639-20.847-9.3066-21.289zm166.13 15.925c30.688 13.612 61.188 31.112 87.088 52.449-28.888 14.875-55.625 33.575-82.725 51.4-5.725-11.7-2.4637-28.375-4.5137-42.1 12.712-18.55-0.96211-43.3 0.15039-61.75zm158.26 14.137c18.25 11.725 37.938 26.876 50.15 45.676-17.225 10.85-35.837 19.274-54.225 27.887-6.0375-25.038 8.4992-48.338 4.0742-73.562zm-612.56 1.2207c15.83-0.40965 34.736 12.207 34.99 28.93-6.275 13.375-22.587 20.15-36.662 20.625-10.912-9.6375 4.0875-25.551-6.8125-35.176-6.25-5.275 1.4129-12.736 6.9629-14.299 0.50352-0.0406 1.0108-0.0669 1.5215-0.0801zm117.66 3.6699c21.875-0.39486 48.07 18.127 37.57 42.197-4.075 38.9-63.425 30.438-70.062-2.0996 1.9875-4.4 4.1875-8.9629 7.75-12.338 19.325 3.875-1.725-30.051 20.438-27.426 1.4078-0.19844 2.8463-0.30766 4.3047-0.33399zm-258.01 7.625c-0.46159 0.0004-0.94843 0.0207-1.459 0.0606-7.3 3.45-12.173 10.7-19.398 14.438-9.3625-3.6625-17.188-17.289-28.338-11.977-6.6375 11.088 7.9492 15.276 14.637 19.738-4.325 7.3625-17.35 11.1-14.225 21.312 7.975 10.012 16.938-5.8379 24.25-8.7129 8.0625 4.6375 11.2 21.775 23.725 16.463 13.575-9.975-22.338-22.362-4.0254-30.637 10.281-2.3129 19.143-20.698 4.834-20.686zm442.18 12.334c6.7625 10.95-9.6137 24.789-21.451 27.539 5.7375-10.1 13.701-18.927 21.451-27.539z" transform="scale(.8)" fill="#1a1818"/>
<path id="path8" d="m134.8 38.346c-8.35-0.213-15.42 12.17-22.01 17.279-15.265 3.825-29.565-6.037-44.628-5.037-2.0375 11.712 8.5012 22.713 3.8887 34.9-15.512 3.925-33.564-2.7891-47.977 0.96094 2.5875 15.025 10.863 30.363 8.6504 46.051-8.55 6.7625-26.249-1.5496-31.449 10.4 3.5625 19.912 23.325 31.513 32.713 48.4 3.95 14.388-19.738 22.237-12.613 37.225 15.5 5.7625 34.737-8.5387 49.662 1.7988 4.4875 11.8-12.125 24.539-5.1875 36.664 8.1 1.8125 15.663-5.5016 23.301-3.7891 9.5125 13.075-3.4137 38.85 17.674 42.688 23.988-0.8625 43.325-19.075 56-38.162 14.388-4.475 29.938-0.1125 44.463 2.1875 8.8-13.688-9.0871-28.425-6.7246-42.525 9.2125-6.9 23.013-1.0496 31.488-9.2246 7.975-11.412-4.3633-25.912 3.5742-37.512 5.2-1.9875 12.462-2.5758 14.625-8.4883 0.2875-3.325 0.57578-6.6367 0.86328-9.9492-7.6875 0.075-15.414-0.32461-23.076 0.40039-17.762 39.338-49.45 74.399-84.188 101.2-6.2 5.05-17.538 7.9375-21.938-0.8125-23.488-35.06-59.812-57.5-89.025-86.97-10.15-9.275-10.112-25.749-1.375-35.861 21.45-28.2 52.538-46.727 79.025-69.664 3.5875-3.0625 6.7754-8.1871 12.463-6.5996 27.462 15.25 41.936 46.964 71.773 58.826 10.5 7.3 26.639 7.7375 31.389 21.25 2.6875 5.925 10.699 2.7117 15.799 3.9492-11.325-14.188 4.5512-29.238 0.45117-43.988-12.838-4.6875-24.164 16.876-37.139 11.113-2.65-15.075 2.7125-36.738-12.188-46.838-10.262 0.2625-18.974 11.051-29.574 8.5762-7.7875-8.775 3.6379-21.639-0.72461-31.727-9.2 7.1125-28.6 12.113-26.287-6.5117-0.56797-0.13203-1.1311-0.20261-1.6875-0.2168zm-13.188 43.316c-25.875 18.162-50.875 38.013-73.213 60.5-5.625 6.0875-14.013 16-5.1758 23.275 24.562 27.588 58.787 45.263 80.287 76.025 3.8875 3.0125 7.125 14.799 13.562 9.5742 28.8-24.15 56.226-51.875 73.238-85.725 4.6875-7.5875 4.8879-20.775-6.2246-21.975-34.5-10.325-56.237-41.113-82.475-61.676zm22.982 56.203c14.309-0.0124 5.4469 18.373-4.834 20.686-18.312 8.275 17.6 20.662 4.0254 30.637-12.525 5.3125-15.662-11.825-23.725-16.463-7.3125 2.875-16.275 18.725-24.25 8.7129-3.125-10.212 9.8996-13.95 14.225-21.312-6.6875-4.4625-21.274-8.6508-14.637-19.738 11.15-5.3125 18.975 8.3141 28.338 11.977 7.225-3.7375 12.098-10.988 19.398-14.438 0.51055-0.0398 0.99739-0.0601 1.459-0.0606z" transform="scale(.8)" fill="#fc9833"/>
<path id="path12" d="m866.41 65.199c-3.7375 24.588-0.59883 52.364 0.26367 78.102-0.5898 5.0508 3.4913 16.512-2.9023 17.523 5.3476 0.60284 10.716 1.366 16.102 1.4258 10.588-13.875-11.525-54.499 15.838-55.762 23.312 11.212 40.15 31.837 60.338 47.475-26.05-32.738-53.439-67.726-89.639-88.764zm-2.6387 95.625c-1.3672-0.15412-2.7335-0.30676-4.0977-0.42383 1.7035 0.48316 3.0386 0.59143 4.0977 0.42383zm33.738-35.475c4.425 25.225-10.112 48.525-4.0742 73.562 18.388-8.6125 37-17.037 54.225-27.887-12.212-18.8-31.9-33.951-50.15-45.676zm-25.385 50.795c-0.53557-0.0283-1.1074-0.0269-1.7148 0.006-5.8125 19.425 1.0008 42.4 3.3008 62.475 19.05 5.7 36.899-12.45 52.574-21.088 14.638-13.088 36.326-20.899 43.639-40.449-22.762 11.538-45.614 22.936-68.451 34.361-6.1875 3.175-13.638 6.4633-20.65 4.1758-9.0578-9.1547 7.9054-38.603-8.6973-39.48z" transform="scale(.8)" fill="#fccb99"/>
<path id="path14" d="m704.72 68.875c5.9 27.625 3.3875 55.776 5.125 83.676 3.675 7.5-3.2254 7.3484-7.4629 8.0234 9 0.675 18.113 1.2875 27.113 0.1875 2.3875-19.8-7.5379-38.699-5.2129-58.387 2.4625-9.575 14.637-8.175 21.6-4.5625 35.588 16.35 69.45 38.412 100.15 61.375-38.662-41.875-94.138-60.45-141.31-90.312zm34.53 42.335c-1.1125 18.45 12.562 43.2-0.15039 61.75 2.05 13.725-1.2113 30.4 4.5137 42.1 27.1-17.825 53.837-36.525 82.725-51.4-25.9-21.338-56.4-38.837-87.088-52.449zm106.61 62.17c-4.29-0.07-8.55 0.18-12.21 2.62-30.39 17.02-60.25 35.23-88.15 56.09-5.0375 3.1625-14.226 2.2617-15.926-4.4258-4.4125-16.55-3.975-33.9-5.1875-50.85-4.625-0.3875-9.2359-0.68672-13.836-0.88672-3.6625 27.925 5.4109 56.5 12.148 83.537 5.95 8.3 15.951 0.0363 22.238-3.2637 35.6-27.775 70.662-61.55 108.56-82.725-2.4797 0.11719-5.0665-0.0466-7.6406-0.0918z" transform="scale(.8)" fill="#cb6698"/>
<path id="path20" d="m290.44 97.484c-10.163 0.08232-19.85 2.5078-28.354 9.7031-4.7875 12.888-11.313 26.337-10.301 40.512 19.05 5.7875 2.575-14.224 10.875-22.449 11.788-20.1 40.575-13.813 55.713-1.0879 9.475 5.4125 10.562 22.225 24.012 19.912-0.8375-12.075 9.0266-27.95-0.46094-38.725-16.289-1.6328-34.547-8.0024-51.484-7.8652zm-5.4941 29.086c-0.51065 0.0132-1.018 0.0395-1.5215 0.0801-5.55 1.5625-13.213 9.0238-6.9629 14.299 10.9 9.625-4.1 25.538 6.8125 35.176 14.075-0.475 30.387-7.25 36.662-20.625-0.2543-16.723-19.16-29.339-34.99-28.93zm-28.088 34.684c-1.6005-0.0431-3.4942 0.25195-5.7461 0.95898-0.2875 3.3125-0.57578 6.6242-0.86328 9.9492 7.5125-1.2 9.5879 8.8883 16.9 7.8633-1.5715-8.4375-1.6482-18.539-10.291-18.771z" transform="scale(.8)" fill="#f6d57d"/>
<path id="path22" d="m410.28 111.57c-6.213 0.11683-12.146 1.6062-17.246 4.7207 19.225-2.6125 39.3 4.0871 53.35 17.287 6.3 4.975 6.1258 18.8 15.988 17.9-4.1406-23.223-29.903-40.325-52.092-39.908zm-32.732 12.234c-8.9875 4.225-16.362 11.262-20.625 20.312 19.025 8.85 13.725-9.525 20.625-20.312zm25.055 6.4394c-1.4584 0.0263-2.8969 0.13555-4.3047 0.33399-22.162-2.625-1.1125 31.301-20.438 27.426-3.5625 3.375-5.7625 7.9379-7.75 12.338 6.6375 32.538 65.988 41 70.062 2.0996 10.5-24.07-15.695-42.592-37.57-42.197zm-50.529 26.775c-0.6138 0.0325-1.2953 0.12969-2.0508 0.29688-3.05 39.762 39.35 62.275 73.85 59.287 22.325-7.625 35.063-30.312 41.113-51.875-14.55-3.2625-8.7379 16.164-15.15 23.826-16.362 40.488-82.75 26.387-92.838-11.963-1.6875-6.1289 4.2831-20.059-4.9238-19.572z" transform="scale(.8)" fill="#fc9899"/>
</g>
<use id="use4196" xlink:href="#g4187" transform="translate(761.6)" height="100%" width="100%" y="0" x="0"/>
<use id="use4198" xlink:href="#g4187" transform="translate(1523.2)" height="100%" width="100%" y="0" x="0"/>
<use id="use4200" xlink:href="#g4187" transform="translate(2284.8)" height="100%" width="100%" y="0" x="0"/>
<use id="use4202" xlink:href="#g4187" transform="translate(3046.4)" height="100%" width="100%" y="0" x="0"/>
</g>
</svg>
